
        <svg xmlns="http://www.w3.org/2000/svg" xmlns:xlink="http://www.w3.org/1999/xlink" version="1.1" width="3250" 
        height="2126.7365860937507" viewBox="0 0 3250 2126.7365860937507">
			<rect fill="#BA3D00" width="3250" height="2126.7365860937507"/>
			<g transform="scale(12.5) translate(10, 10)">
				<defs id="SvgjsDefs1327"><linearGradient id="SvgjsLinearGradient1334"><stop id="SvgjsStop1335" stop-color="#8f5e25" offset="0"></stop><stop id="SvgjsStop1336" stop-color="#fbf4a1" offset="0.5"></stop><stop id="SvgjsStop1337" stop-color="#8f5e25" offset="1"></stop></linearGradient><linearGradient id="SvgjsLinearGradient1338"><stop id="SvgjsStop1339" stop-color="#8f5e25" offset="0"></stop><stop id="SvgjsStop1340" stop-color="#fbf4a1" offset="0.5"></stop><stop id="SvgjsStop1341" stop-color="#8f5e25" offset="1"></stop></linearGradient><linearGradient id="SvgjsLinearGradient1342"><stop id="SvgjsStop1343" stop-color="#8f5e25" offset="0"></stop><stop id="SvgjsStop1344" stop-color="#fbf4a1" offset="0.5"></stop><stop id="SvgjsStop1345" stop-color="#8f5e25" offset="1"></stop></linearGradient></defs><g id="SvgjsG1328" featureKey="symbolFeature-0" transform="matrix(1.1668044005608267,0,0,1.1668044005608267,82.83319559943918,-1.508678069895624)" fill="url(#SvgjsLinearGradient1334)"><title xmlns="http://www.w3.org/2000/svg">Momo-gastronomy-nutrition-asian-oriental-food</title><path xmlns="http://www.w3.org/2000/svg" d="M62,45H61V40a1,1,0,0,0-1-1H58.522a6.954,6.954,0,0,0-1.583-7.475l-9.232-9.232a1,1,0,0,0-1.414,0L39.5,29.086l-6.793-6.793a1,1,0,0,0-1.414,0L24.5,29.086l-6.793-6.793a1,1,0,0,0-1.414,0L7.061,31.525A6.958,6.958,0,0,0,5.477,39H4a1,1,0,0,0-1,1v5H2a1,1,0,0,0-1,1V62a1,1,0,0,0,1,1H62a1,1,0,0,0,1-1V46A1,1,0,0,0,62,45ZM47,24.414l8.525,8.525a5,5,0,0,1,.8,6.061h-12.8a6.954,6.954,0,0,0-1.583-7.475L40.914,30.5Zm-15,0,8.525,8.525a5,5,0,0,1,.8,6.061h-12.8a6.954,6.954,0,0,0-1.583-7.475L25.914,30.5ZM7,36.5a5,5,0,0,1,1.475-3.561L17,24.414l8.525,8.525a5,5,0,0,1,.8,6.061H7.68A4.992,4.992,0,0,1,7,36.5ZM5,41H59v4H5ZM3,47h8v2H9v2h2v2H9v2h2v2H9v2h2v2H3ZM61,61H13V59h2V57H13V55h2V53H13V51h2V49H13V47H61Z"></path><path xmlns="http://www.w3.org/2000/svg" d="M25.293,22.707a1,1,0,0,0,1.414,0l20-20L45.293,1.293,26,20.586,24.414,19,40.707,2.707,39.293,1.293l-17,17a1,1,0,0,0,0,1.414Z"></path><path xmlns="http://www.w3.org/2000/svg" d="M34.293,19.707l3,3a1,1,0,0,0,1.414,0l20-20L57.293,1.293,38,20.586,36.414,19,52.707,2.707,51.293,1.293l-17,17A1,1,0,0,0,34.293,19.707Z"></path></g><g id="SvgjsG1329" featureKey="nameFeature-0" transform="matrix(1.0206510551738472,0,0,1.0206510551738472,-4.490864740101798,82.52835556042385)" fill="url(#SvgjsLinearGradient1338)"><path d="M8.76 28.04 l0 11.96 l-4.36 0 l0 -29.84 l21 0 l0 4.4 l-16.64 0 l0 9.04 q1.24 -0.72 2.76 -0.96 q1.12 -0.2 2.88 -0.2 l6.52 0 l0 4.44 l-6.52 0 q-1.64 0 -2.88 0.2 q-1.52 0.28 -2.76 0.96 z M58.804 24.880000000000003 q0 -3.2 -1.64 -5.8 q-1.56 -2.52 -4.26 -3.96 t-5.86 -1.44 q-3.28 0 -5.98 1.48 t-4.22 4.04 q-1.56 2.68 -1.56 5.96 q0 3.12 1.68 5.76 q1.6 2.48 4.3 3.94 t5.84 1.46 t5.84 -1.52 t4.26 -4.08 q1.6 -2.68 1.6 -5.84 z M63.124 25.119999999999997 q0 4.32 -2.24 7.96 q-2.16 3.48 -5.86 5.54 t-7.98 2.06 q-4.44 0 -8.16 -2.16 q-3.64 -2.08 -5.72 -5.72 q-2.16 -3.72 -2.16 -8.16 q0 -4.28 2.28 -7.88 q2.16 -3.44 5.86 -5.46 t7.94 -2.02 q4.36 0 8.08 2.12 q3.64 2.08 5.76 5.64 q2.2 3.72 2.2 8.08 z M96.528 24.880000000000003 q0 -3.2 -1.64 -5.8 q-1.56 -2.52 -4.26 -3.96 t-5.86 -1.44 q-3.28 0 -5.98 1.48 t-4.22 4.04 q-1.56 2.68 -1.56 5.96 q0 3.12 1.68 5.76 q1.6 2.48 4.3 3.94 t5.84 1.46 t5.84 -1.52 t4.26 -4.08 q1.6 -2.68 1.6 -5.84 z M100.84800000000001 25.119999999999997 q0 4.32 -2.24 7.96 q-2.16 3.48 -5.86 5.54 t-7.98 2.06 q-4.44 0 -8.16 -2.16 q-3.64 -2.08 -5.72 -5.72 q-2.16 -3.72 -2.16 -8.16 q0 -4.28 2.28 -7.88 q2.16 -3.44 5.86 -5.46 t7.94 -2.02 q4.36 0 8.08 2.12 q3.64 2.08 5.76 5.64 q2.2 3.72 2.2 8.08 z M114.412 14.559999999999999 l0 21.08 l6.76 0 q2.8 0 5.04 -1.44 q2.12 -1.4 3.32 -3.76 t1.2 -5.16 q0 -2.92 -1.14 -5.36 t-3.26 -3.88 q-2.28 -1.48 -5.24 -1.48 l-6.68 0 z M107.772 14.559999999999999 l-1.92 -4.4 l15.2 0 q3.96 0 7.24 2.04 q3.16 1.96 5 5.36 t1.84 7.4 q0 3 -1.18 5.94 t-3.26 5.14 q-2 2.16 -4.28 3.08 q-2.2 0.88 -5.24 0.88 l-11.04 0 l0 -25.44 l-2.36 0 z M147.056 26.8 l0 13.2 l-4.32 0 l0 -29.84 l4.32 0 l0 12.24 q1.6 -0.8 3.8 -0.8 q0.8 0 3.88 0.36 q4.32 0.52 5.84 0.52 q2.32 0 4.04 -0.76 l0 -11.56 l4.36 0 l0 29.84 l-4.36 0 l0 -13.88 q-1.72 0.76 -4.04 0.76 q-1.52 0 -5.84 -0.52 q-3.08 -0.36 -3.88 -0.36 q-2.2 0 -3.8 0.8 z M191.58 40.68 q-4.2 0 -7.22 -1.46 t-4.6 -4.22 t-1.58 -6.6 l0 -18.24 l4.32 0 l0 18.24 q0 3.84 2.36 5.88 t6.72 2.04 t6.72 -2.04 t2.36 -5.88 l0 -18.24 l4.32 0 l0 18.24 q0 3.84 -1.58 6.6 t-4.6 4.22 t-7.22 1.46 z M218.50400000000002 14.559999999999999 l0 9.12 q1.24 -0.72 2.8 -1 q1.16 -0.2 2.88 -0.2 l5.12 0 q2.08 0 3.26 -1.04 t1.18 -3.08 q0 -3.8 -4.44 -3.8 l-10.8 0 z M218.50400000000002 28.119999999999997 l0 7.52 l11.24 0 q1.32 0 2.52 -0.48 q1.32 -0.48 2.08 -1.4 q0.88 -1.08 0.88 -2.48 q0 -2.4 -1.88 -3.48 q-1.48 -0.88 -4.04 -0.88 l-5.12 0 q-3.44 0 -5.68 1.2 z M239.544 31.84 q0 2.8 -1.56 4.76 q-1.36 1.72 -3.84 2.6 q-2.2 0.8 -4.84 0.8 l-15.12 0 l0 -29.84 l15.12 0 q2.56 0 4.54 0.96 t3.1 2.76 q1.16 1.88 1.16 4.44 q0 1.96 -0.7 3.5 t-1.98 2.38 q1.72 0.8 2.84 2.64 q1.28 2.12 1.28 5 z"></path></g><g id="SvgjsG1330" featureKey="sloganFeature-0" transform="matrix(0.3429462923071986,0,0,0.3429462923071986,29.373711478110476,142.04752095983494)" fill="url(#SvgjsLinearGradient1342)"><path d="M1.8262 20 l0 -14.111 l5.1074 0 c4.502 0 6.7285 2.832 6.7285 7.0508 c0 4.2285 -2.2266 7.0605 -6.7285 7.0605 l-5.1074 0 z M4.7559 17.4121 l2.0313 0 c2.5977 0 3.7891 -1.6211 3.7891 -4.4727 s-1.1914 -4.4727 -3.7891 -4.4727 l-2.0313 0 l0 8.9453 z M26.406484374999998 8.467 l-5.2344 0 l0 3.2031 l4.6387 0 l0 2.5488 l-4.6387 0 l0 3.1934 l5.2344 0 l0 2.5879 l-8.1836 0 l0 -14.111 l8.1836 0 l0 2.5781 z M34.1699625 17.4121 l4.4238 0 l0 2.5879 l-7.3535 0 l0 -14.111 l2.9297 0 l0 11.523 z M42.6465125 20 l0 -14.111 l2.9297 0 l0 14.111 l-2.9297 0 z M60.009984375 5.888999999999999 l3.1152 0 l-5.2148 14.111 l-3.2227 0 l-5.1855 -14.111 l3.1055 0 l3.7012 10.693 z M75.244375 8.467 l-5.2344 0 l0 3.2031 l4.6387 0 l0 2.5488 l-4.6387 0 l0 3.1934 l5.2344 0 l0 2.5879 l-8.1836 0 l0 -14.111 l8.1836 0 l0 2.5781 z M87.529253125 20 l-3.6719 -6.2109 l-0.84961 0 l0 6.2109 l-2.9297 0 l0 -14.111 l5.1172 0 c3.1934 0 4.541 1.8848 4.541 4.2188 c0 1.8945 -1.0742 3.125 -2.9883 3.5352 l4.248 6.3574 l-3.4668 0 z M83.007853125 8.32 l0 3.3691 l1.7285 0 c1.5625 0 2.1973 -0.66406 2.1973 -1.6797 c0 -1.0059 -0.63477 -1.6895 -2.1973 -1.6895 l-1.7285 0 z M94.960965625 20 l0 -14.111 l2.9297 0 l0 14.111 l-2.9297 0 z M112.9884375 5.888999999999999 l2.9199 0 l0 14.111 l-3.3887 0 l-6.25 -10.088 l0 10.088 l-2.9199 0 l0 -14.111 l3.3496 0 l6.2891 10.029 l0 -10.029 z M127.48048125 20.19531 c-4.0723 0 -7.0703 -2.8125 -7.0703 -7.2168 c0 -4.4629 3.0664 -7.2852 7.2168 -7.2852 c2.7246 0 4.9805 1.2012 6.2109 3.3203 l-2.5684 1.3672 c-0.74219 -1.4453 -2.0703 -2.1387 -3.6426 -2.1387 c-2.4414 0 -4.2773 1.6797 -4.2773 4.668 c0 2.8809 1.7188 4.7363 4.3848 4.7363 c1.8066 0 3.4668 -0.89844 3.8672 -2.959 l-3.8574 0 l0 -2.3535 l6.6309 0 l0 7.666 l-2.3047 0 l0 -1.9531 c-0.9082 1.3379 -2.4316 2.1484 -4.5898 2.1484 z M155.1370625 5.888999999999999 l2.9297 0 l0 14.111 l-2.9297 0 l0 -5.8008 l-5.9668 0 l0 5.8008 l-2.9297 0 l0 -14.111 l2.9297 0 l0 5.7617 l5.9668 0 l0 -5.7617 z M172.978984375 20 l-1.0254 -2.9102 l-5.9277 0 l-1.0254 2.9102 l-2.998 0 l5.1953 -14.111 l3.584 0 l5.1953 14.111 l-2.998 0 z M166.884784375 14.6387 l4.209 0 l-2.0996 -5.9863 z M185.7812375 5.888999999999999 c2.7637 0 4.4824 2.0508 4.4824 4.5605 c0 2.5684 -1.7188 4.4922 -4.4824 4.4922 l-2.9395 0 l0 5.0586 l-2.9297 0 l0 -14.111 l5.8691 0 z M185.2929375 12.4902 c1.4648 0 2.1484 -0.81055 2.1484 -2.0801 c0 -1.2207 -0.68359 -2.0703 -2.1484 -2.0703 l-2.4512 0 l0 4.1504 l2.4512 0 z M200.41014375 5.888999999999999 c2.7637 0 4.4824 2.0508 4.4824 4.5605 c0 2.5684 -1.7188 4.4922 -4.4824 4.4922 l-2.9395 0 l0 5.0586 l-2.9297 0 l0 -14.111 l5.8691 0 z M199.92184375 12.4902 c1.4648 0 2.1484 -0.81055 2.1484 -2.0801 c0 -1.2207 -0.68359 -2.0703 -2.1484 -2.0703 l-2.4512 0 l0 4.1504 l2.4512 0 z M209.16995 20 l0 -14.111 l2.9297 0 l0 14.111 l-2.9297 0 z M227.197421875 5.888999999999999 l2.9199 0 l0 14.111 l-3.3887 0 l-6.25 -10.088 l0 10.088 l-2.9199 0 l0 -14.111 l3.3496 0 l6.2891 10.029 l0 -10.029 z M243.769765625 8.467 l-5.2344 0 l0 3.2031 l4.6387 0 l0 2.5488 l-4.6387 0 l0 3.1934 l5.2344 0 l0 2.5879 l-8.1836 0 l0 -14.111 l8.1836 0 l0 2.5781 z M253.29104375 20.19531 c-3.0273 0 -5.3906 -1.4551 -5.8203 -4.1016 l3.0273 -0.69336 c0.19531 1.582 1.3574 2.4023 2.9102 2.4023 c1.1914 0 2.1387 -0.52734 2.1289 -1.7188 c-0.0097656 -1.3281 -1.5723 -1.748 -3.291 -2.2754 c-2.0703 -0.64453 -4.2871 -1.4063 -4.2871 -4.0039 c0 -2.627 2.1484 -4.1113 4.9805 -4.1113 c2.4805 0 4.9805 1.0059 5.5469 3.7109 l-2.832 0.70313 c-0.26367 -1.4063 -1.2109 -2.0215 -2.5391 -2.0215 c-1.1816 0 -2.1875 0.48828 -2.1875 1.6504 c0 1.084 1.3867 1.4453 2.9883 1.9238 c2.1289 0.64453 4.6484 1.4648 4.6484 4.2773 c0 2.998 -2.5098 4.2578 -5.2734 4.2578 z M267.773465625 20.19531 c-3.0273 0 -5.3906 -1.4551 -5.8203 -4.1016 l3.0273 -0.69336 c0.19531 1.582 1.3574 2.4023 2.9102 2.4023 c1.1914 0 2.1387 -0.52734 2.1289 -1.7188 c-0.0097656 -1.3281 -1.5723 -1.748 -3.291 -2.2754 c-2.0703 -0.64453 -4.2871 -1.4063 -4.2871 -4.0039 c0 -2.627 2.1484 -4.1113 4.9805 -4.1113 c2.4805 0 4.9805 1.0059 5.5469 3.7109 l-2.832 0.70313 c-0.26367 -1.4063 -1.2109 -2.0215 -2.5391 -2.0215 c-1.1816 0 -2.1875 0.48828 -2.1875 1.6504 c0 1.084 1.3867 1.4453 2.9883 1.9238 c2.1289 0.64453 4.6484 1.4648 4.6484 4.2773 c0 2.998 -2.5098 4.2578 -5.2734 4.2578 z M279.1698875 23.5938 l-2.0117 0 l1.2207 -6.3867 l2.8906 0 z M299.2090125 20.19531 c-4.1504 0 -7.2168 -2.832 -7.2168 -7.2559 c0 -4.4336 3.0664 -7.2461 7.2168 -7.2461 c4.1406 0 7.207 2.8125 7.207 7.2461 c0 4.4238 -3.0664 7.2559 -7.207 7.2559 z M299.2090125 17.5098 c2.4316 0 4.2969 -1.709 4.2969 -4.5703 c0 -2.8516 -1.8652 -4.5508 -4.2969 -4.5508 s-4.2969 1.6992 -4.2969 4.5508 c0 2.8613 1.8652 4.5703 4.2969 4.5703 z M320.5665625 5.888999999999999 l2.9199 0 l0 14.111 l-3.3887 0 l-6.25 -10.088 l0 10.088 l-2.9199 0 l0 -14.111 l3.3496 0 l6.2891 10.029 l0 -10.029 z M337.13890625 8.467 l-5.2344 0 l0 3.2031 l4.6387 0 l0 2.5488 l-4.6387 0 l0 3.1934 l5.2344 0 l0 2.5879 l-8.1836 0 l0 -14.111 l8.1836 0 l0 2.5781 z M365.156203125 20 l-2.9199 0 l-0.92773 -10.635 l-3.5742 10.635 l-1.8945 0 l-3.5742 -10.635 l-0.9375 10.635 l-2.9297 0 l1.1816 -14.111 l4.1797 0 l3.0078 8.8574 l3.0469 -8.8574 l4.1797 0 z M378.222890625 8.467 l-5.2344 0 l0 3.2031 l4.6387 0 l0 2.5488 l-4.6387 0 l0 3.1934 l5.2344 0 l0 2.5879 l-8.1836 0 l0 -14.111 l8.1836 0 l0 2.5781 z M392.50046875 20 l-1.0254 -2.9102 l-5.9277 0 l-1.0254 2.9102 l-2.998 0 l5.1953 -14.111 l3.584 0 l5.1953 14.111 l-2.998 0 z M386.40626875 14.6387 l4.209 0 l-2.0996 -5.9863 z M402.363321875 17.4121 l4.4238 0 l0 2.5879 l-7.3535 0 l0 -14.111 l2.9297 0 l0 11.523 z M427.295390625 20 l-1.0254 -2.9102 l-5.9277 0 l-1.0254 2.9102 l-2.998 0 l5.1953 -14.111 l3.584 0 l5.1953 14.111 l-2.998 0 z M421.201190625 14.6387 l4.209 0 l-2.0996 -5.9863 z M442.41234375 5.888999999999999 l0 2.5781 l-3.3496 0 l0 11.533 l-2.9004 0 l0 -11.533 l-3.3691 0 l0 -2.5781 l9.6191 0 z M462.900859375 20 l-1.0254 -2.9102 l-5.9277 0 l-1.0254 2.9102 l-2.998 0 l5.1953 -14.111 l3.584 0 l5.1953 14.111 l-2.998 0 z M456.806659375 14.6387 l4.209 0 l-2.0996 -5.9863 z M485.02953125 5.888999999999999 l0 2.5781 l-3.3496 0 l0 11.533 l-2.9004 0 l0 -11.533 l-3.3691 0 l0 -2.5781 l9.6191 0 z M489.062528125 20 l0 -14.111 l2.9297 0 l0 14.111 l-2.9297 0 z M513.623 20 l-2.9199 0 l-0.92773 -10.635 l-3.5742 10.635 l-1.8945 0 l-3.5742 -10.635 l-0.9375 10.635 l-2.9297 0 l1.1816 -14.111 l4.1797 0 l3.0078 8.8574 l3.0469 -8.8574 l4.1797 0 z M526.6896875 8.467 l-5.2344 0 l0 3.2031 l4.6387 0 l0 2.5488 l-4.6387 0 l0 3.1934 l5.2344 0 l0 2.5879 l-8.1836 0 l0 -14.111 l8.1836 0 l0 2.5781 z"></path></g>
			</g>
		</svg>
	